<?xml version="1.0" encoding="utf-8"?>
<!-- Generator: Adobe Illustrator 24.1.2, SVG Export Plug-In . SVG Version: 6.00 Build 0)  -->
<svg version="1.1" id="Capa_1" xmlns="http://www.w3.org/2000/svg" xmlns:xlink="http://www.w3.org/1999/xlink" x="0px" y="0px"
	 viewBox="0 0 1366 768" style="enable-background:new 0 0 1366 768;" xml:space="preserve">
<style type="text/css">
	.st0{clip-path:url(#SVGID_1_);}
	.st1{opacity:0.54;}
	.st2{fill:#E1D2F4;}
	.st3{clip-path:url(#SVGID_2_);fill:#4435AC;}
</style>
<g>
	<defs>
		<rect id="SVGID_5_" x="0.3" y="-8.7" width="360.9" height="628.7"/>
	</defs>
	<clipPath id="SVGID_1_">
		<use xlink:href="#SVGID_5_"  style="overflow:visible;"/>
	</clipPath>
	<g class="st0">
		<g class="st1">
			<path class="st2" d="M-102.9,190.7c3.5-57.9,35.5-115.9,88.2-140.2s124.2-6.4,151,45.1c12.6,24.3,15.1,53.6,31.3,75.7
				c30.5,41.7,95.4,41.2,132.3,77.4c35.6,34.9,33.4,96.5,4.9,137.3c-28.5,40.9-76.9,63.6-125.5,74.7
				c-71.4,16.3-155.6,6.9-202.8-49.1C-63.3,364.5-101.3,252.3-102.9,190.7"/>
		</g>
		<g>
			<path class="st2" d="M57.8,504.7c-4.9-7.5-13.4-12.5-22.3-13.3c-8.9-0.8-18.1,2.7-24.4,9c-12.1,12.3-11,35,2.4,46
				c13.3,11,35.9,7.7,45.5-6.6c9.7-14.3,4.3-36.4-10.8-44.7"/>
		</g>
	</g>
</g>
<g>
	<defs>
		<rect id="SVGID_7_" x="676.5" y="-8.7" width="694.2" height="811.7"/>
	</defs>
	<clipPath id="SVGID_2_">
		<use xlink:href="#SVGID_7_"  style="overflow:visible;"/>
	</clipPath>
	<path class="st3" d="M1768,687.1c107.2-102.3,132.8-311.2,33.5-456.5C1718.7,109.5,1566.3-15,1374.2-51.3
		c-192.1-36.3-360.4-36.3-433.1,11.7c-59.6,39.2-31.9,93.9-13.2,140.4c24.9,62,28.6,111.2-74,201.3
		C736.8,404.9,705.1,443.5,699.3,543c-4.8,80.9,62.7,189.7,151.3,205.2c123.3,21.7,169.1-35.6,289.8-74.3
		c96.8-31,163.9-16.5,251.7,42.9C1479.8,776.2,1610.7,837.3,1768,687.1z"/>
</g>
</svg>
