<svg width="25" height="24" viewBox="0 0 25 24" fill="none" xmlns="http://www.w3.org/2000/svg">
<path d="M24.7 6.96627C24.7 5.68675 24.4157 4.83374 24.1313 4.12289C23.847 3.26988 23.4205 2.55904 22.7096 1.99036C22.141 1.42169 21.4301 0.853012 20.5771 0.568675C19.8663 0.284337 19.0132 0.142169 17.7337 0C16.4542 0 16.0277 0 12.9 0C9.77228 0 9.20361 0 8.06626 0C6.78674 0 5.93373 0.284337 5.22288 0.568675C4.36987 0.853012 3.65903 1.27952 3.09035 1.99036C2.52168 2.55904 1.95301 3.26988 1.66867 4.12289C1.38433 4.83374 1.24217 5.68675 1.1 6.96627C1.1 8.24578 0.957825 8.67229 0.957825 11.8C0.957825 14.9277 0.957825 15.4964 0.957825 16.6337C0.957825 17.9133 1.24216 18.7663 1.5265 19.4771C1.81084 20.3301 2.23734 21.041 2.94819 21.6096C3.51686 22.1783 4.22771 22.747 5.08072 23.0313C5.79156 23.3157 6.64457 23.4578 7.92409 23.6C9.20361 23.6 9.63012 23.6 12.7578 23.6C15.8855 23.6 16.4542 23.6 17.5916 23.6C18.8711 23.6 19.7241 23.3157 20.4349 23.0313C21.9988 22.4627 23.2783 21.1831 23.847 19.6193C24.1313 18.9084 24.2735 18.0554 24.4157 16.7759C24.4157 15.4964 24.4157 15.0699 24.4157 11.9422C24.4157 8.81446 24.7 8.24578 24.7 6.96627ZM22.5675 16.6337C22.5675 17.7711 22.2831 18.4819 22.141 18.9084C21.7145 19.9036 20.8614 20.7566 19.8663 21.1831C19.4398 21.3253 18.8711 21.6096 17.5916 21.6096C16.312 21.6096 16.0277 21.6096 12.7578 21.6096C9.48795 21.6096 9.20361 21.6096 7.92409 21.6096C6.78674 21.6096 6.0759 21.3253 5.64939 21.1831C5.08072 21.041 4.65421 20.7566 4.22771 20.3301C3.8012 19.9036 3.51687 19.4771 3.3747 18.9084C3.23253 18.4819 2.94819 17.9133 2.94819 16.6337C2.94819 15.3542 2.94819 15.0699 2.94819 11.8C2.94819 8.53012 2.94819 8.24578 2.94819 6.96627C2.94819 5.82892 3.23253 5.11807 3.3747 4.69157C3.51687 4.12289 3.8012 3.69639 4.22771 3.26988C4.65421 2.84337 5.08072 2.55904 5.64939 2.41687C6.0759 2.2747 6.64457 1.99036 7.92409 1.99036C9.20361 1.99036 9.48795 1.99036 12.7578 1.99036C15.8855 1.99036 16.312 1.99036 17.5916 1.99036C18.7289 1.99036 19.4398 2.2747 19.8663 2.41687C20.4349 2.55904 20.8614 2.84337 21.2879 3.26988C21.7145 3.69639 21.9988 4.12289 22.141 4.69157C22.2831 5.11807 22.5675 5.68675 22.5675 6.96627C22.5675 8.24578 22.5675 8.53012 22.5675 11.8C22.5675 15.0699 22.5675 15.4964 22.5675 16.6337Z" fill="#4F4F4F"/>
<path d="M12.9 5.82892C9.48794 5.82892 6.78674 8.53012 6.78674 11.9422C6.78674 15.3542 9.48794 18.0554 12.9 18.0554C16.312 18.0554 19.0132 15.3542 19.0132 11.9422C19.0132 8.53012 16.1699 5.82892 12.9 5.82892ZM12.9 15.7807C10.7675 15.7807 8.91927 14.0747 8.91927 11.8C8.91927 9.5253 10.6253 7.81928 12.9 7.81928C15.0325 7.81928 16.8807 9.5253 16.8807 11.8C16.8807 14.0747 15.0325 15.7807 12.9 15.7807Z" fill="#4F4F4F"/>
<path d="M20.5771 5.54458C20.5771 6.39759 20.0084 6.96627 19.1554 6.96627C18.3024 6.96627 17.7337 6.39759 17.7337 5.54458C17.7337 4.69157 18.3024 4.12289 19.1554 4.12289C20.0084 4.12289 20.5771 4.69157 20.5771 5.54458Z" fill="#4F4F4F"/>
</svg>
