<svg width="475" height="73" viewBox="0 0 475 73" fill="none" xmlns="http://www.w3.org/2000/svg">
<path d="M119.396 73C115.949 73 112.365 72.4459 108.918 71.4763C103.955 69.9525 100.232 67.4592 97.6126 63.8577C95.2688 60.6717 93.8901 56.6546 93.4764 51.8064C93.2007 49.5901 93.2007 47.3738 93.2007 45.1575C93.3386 42.8026 93.4764 40.5863 93.7522 38.2315C94.0279 35.8766 94.4415 33.6603 94.8551 31.3055C95.2688 28.9506 95.6824 26.7343 96.096 24.518C96.6475 21.7476 97.0611 19.1157 97.4747 16.6224C97.8883 14.129 98.164 11.9127 98.164 9.97342C98.164 8.72674 98.0262 7.89562 97.8883 7.20302C98.0262 6.51042 97.8883 5.95634 97.6126 5.54078C97.3368 5.12522 97.199 4.9867 96.9232 4.84818C96.6475 4.70966 96.5096 4.70966 96.3717 4.57114C94.8551 4.15558 92.925 4.57114 90.719 5.54078C88.3752 6.64894 85.8935 8.31118 83.1361 10.8045C81.3438 12.4668 79.4136 14.4061 77.4834 16.6224C75.5532 18.8387 73.623 21.1935 71.8307 23.6869C71.8307 25.2106 71.6928 26.8729 71.555 28.5351C71.4171 30.1973 71.1414 31.8596 71.0035 33.3833C70.5899 35.4611 70.1763 37.4004 69.7626 39.3396C69.349 41.2789 68.7976 42.9412 68.2461 44.6034C66.8674 48.2049 65.3508 50.6983 63.8342 52.3605C62.5934 53.4687 61.4904 54.0228 60.5253 54.1613C59.5602 54.1613 58.733 54.1613 58.1815 53.8842C57.63 53.7457 57.0785 53.3302 56.3892 52.6376C55.6998 52.0835 55.2862 50.9753 55.1483 49.5901C55.0105 48.0664 55.2862 46.2656 55.9756 43.9108C57.0785 40.0322 59.2845 35.4611 62.4555 30.1973C63.2827 28.8121 64.1099 27.4269 65.075 26.0417C66.0401 24.6565 66.8674 23.4099 67.8325 22.0247C67.8325 17.592 67.4188 13.852 66.5916 10.8045C65.4887 7.0645 63.6963 4.84818 61.2147 4.57114C58.0436 4.01706 54.459 5.95634 50.4607 10.389C46.8761 14.2675 43.2914 19.8083 39.5689 27.0114C38.0524 30.1973 36.5358 33.2448 35.1571 36.2922C33.7784 39.3396 32.6754 41.9715 31.7103 44.4649C30.7452 46.8197 30.0558 48.759 29.5044 50.2827C28.9529 51.8064 28.6771 52.499 28.6771 52.6376C28.5393 53.1916 28.2635 53.6072 27.712 53.8842C27.2984 54.1613 26.7469 54.2998 26.1955 54.1613C25.644 54.0228 25.2304 53.8842 24.9546 53.4687C24.6789 53.0531 24.4031 52.6376 24.4031 52.0835V51.945C24.4031 51.6679 24.4031 51.3909 24.541 51.2524C25.2304 49.3131 25.7818 47.6508 26.1955 45.9886C26.6091 44.4649 27.1606 42.5256 27.712 40.4478C28.2635 38.37 28.815 36.1537 29.2286 33.9374C30.4695 28.5351 31.0209 23.9639 31.1588 20.2239C31.1588 18.0076 31.0209 16.0683 30.7452 14.4061C30.4695 12.7438 29.918 11.4971 29.3665 10.5275C28.5393 9.28082 27.2984 8.58822 25.7818 8.4497C24.2653 8.31118 22.7487 8.58822 21.37 9.00378C19.9913 9.41934 18.7504 9.97342 17.6475 10.8045C16.5445 11.4971 15.4415 12.3283 14.4764 13.2979C13.5113 14.2675 12.6841 15.0987 11.9948 16.0683C10.4782 18.0076 9.23735 20.2239 8.13438 22.5787C7.03141 24.9336 6.06632 27.4269 5.51483 30.0588C4.82548 32.5522 4.54974 34.907 4.54974 37.2618C4.54974 39.4782 4.82548 41.4174 5.37696 43.0797C5.6527 43.6338 5.6527 44.1878 5.23909 44.7419C4.96335 45.296 4.54974 45.573 3.99825 45.8501C3.44677 46.1271 2.89529 46.1271 2.3438 45.7116C1.79232 45.4345 1.51658 45.019 1.24084 44.4649C0.413612 42.3871 0 40.0322 0 37.4004C0 34.7685 0.413613 31.9981 1.10297 28.9506C1.79232 26.0417 2.75742 23.2713 3.99825 20.5009C5.23909 17.8691 6.75567 15.3757 8.41012 13.1594C10.7539 10.1119 13.3735 7.7571 16.1309 6.09486C19.164 4.2941 22.4729 3.6015 25.9197 3.74002C27.4363 3.87854 28.6771 4.2941 29.918 4.9867C31.1588 5.6793 32.1239 6.64894 32.9511 7.89562C34.7435 10.666 35.5707 14.8216 35.4328 20.2239C35.4328 21.1935 35.2949 22.1632 35.2949 23.1328C35.1571 24.1025 35.1571 25.2106 35.0192 26.3188L35.7085 25.0721C39.5689 17.4535 43.4293 11.6357 47.1518 7.48006C52.2531 1.93926 57.0785 -0.554094 61.7661 0.277025C62.4555 0.415545 63.2827 0.692585 63.9721 0.969625C64.6614 1.38518 65.3508 1.93926 66.178 2.63186C67.0052 3.32446 67.6946 4.2941 68.3839 5.40226C69.0733 6.64894 69.7626 8.03414 70.3141 9.69638C71.0035 11.7742 71.4171 14.129 71.555 16.7609L72.6579 15.5142C74.8639 13.0209 76.9319 10.8045 79 8.72674C81.0681 6.78746 82.9982 5.12522 84.9284 3.87854C89.7539 0.692585 93.89 -0.554094 97.3368 0.415545C99.267 0.969625 100.784 2.2163 101.611 4.15558C102.3 5.54078 102.576 7.48006 102.576 10.1119C102.576 12.1897 102.3 14.5446 101.887 17.1765C101.473 19.8083 100.921 22.5787 100.37 25.4876C99.9564 27.5654 99.5428 29.7818 99.1291 31.9981C98.7155 34.2144 98.4398 36.4307 98.0262 38.647C97.6126 40.8634 97.6126 43.0797 97.4747 45.296C97.3368 47.5123 97.4747 49.5901 97.7504 51.5294C98.164 55.962 99.4049 59.425 101.473 61.9184C103.403 64.4117 106.298 66.351 110.159 67.4592C117.88 69.6755 125.325 69.2599 132.77 65.9355C134.148 65.2429 135.389 64.6888 136.354 63.9962C137.457 63.3036 138.284 62.7495 139.112 62.0569C139.801 61.5028 140.628 60.8102 141.455 60.1176C141.869 59.7021 142.283 59.425 142.972 59.425C143.524 59.425 144.075 59.5635 144.489 59.9791C144.902 60.3947 145.178 60.9487 145.178 61.5028C145.178 62.0569 145.04 62.611 144.627 63.0265C144.627 63.0265 144.351 63.3036 143.937 63.7191C143.524 64.1347 142.834 64.6888 142.007 65.2429C141.18 65.9355 140.215 66.6281 138.974 67.3207C137.733 68.0133 136.354 68.8444 134.838 69.537C131.253 71.1992 127.393 72.3074 123.67 72.7229C122.154 73 120.913 73 119.396 73ZM59.1466 49.7286C59.4223 49.8672 59.5602 49.7286 59.8359 49.5901C60.1117 49.4516 60.2496 49.3131 60.3874 49.1746C60.9389 48.6205 61.4904 47.7894 62.1797 46.6812C62.7312 45.573 63.2827 44.3264 63.8342 42.9412C64.3857 41.556 64.7993 39.8937 65.2129 38.2315C65.6265 36.4307 66.0401 34.63 66.3159 32.6907C66.4537 32.4136 66.4538 32.1366 66.4538 31.721C66.4538 31.444 66.4538 31.167 66.5916 30.7514C65.2129 32.9677 63.9721 35.0455 62.8691 37.1233C61.7661 39.2011 60.9389 41.1404 60.2496 42.8026C59.8359 43.7723 59.5602 44.6034 59.2845 45.4345C59.0087 46.2656 58.8709 46.9582 58.8709 47.6508C58.733 48.3434 58.733 48.759 58.8709 49.036C59.1466 49.5901 59.1466 49.7286 59.1466 49.7286Z" fill="black"/>
<path d="M117.604 54.2998C113.192 54.2998 110.021 53.0531 107.953 50.5598C107.264 49.7286 106.712 48.759 106.298 47.2353C105.885 45.8501 105.747 43.9108 106.161 41.6945C106.574 39.4782 107.401 37.4004 108.366 35.3226C109.469 33.2448 110.71 31.444 112.365 29.7818C113.743 28.3966 115.26 27.1499 116.914 26.1802C118.569 25.2106 120.086 24.795 121.464 24.6565C122.705 24.518 123.946 24.6565 124.911 25.2106C125.876 25.7647 126.565 26.4573 127.117 27.5654C127.668 28.9506 127.668 30.4744 127.255 32.4136C126.841 34.2144 126.014 36.1537 124.773 37.9544C123.946 39.2011 122.981 40.3093 121.878 41.2789C120.775 42.2486 119.672 43.2182 118.431 43.9108C116.087 45.296 113.468 46.2656 110.572 46.4042C111.262 47.7894 112.227 48.759 113.468 49.1746C114.846 49.5901 116.225 49.8672 117.604 49.8672C121.74 49.8672 125.6 48.0664 129.047 44.6034C129.736 43.9108 130.288 43.2182 130.839 42.6641C131.391 41.9715 131.805 41.4174 132.218 40.8634C132.632 40.3093 133.045 39.7552 133.321 39.0626C133.597 38.5085 134.01 38.2315 134.562 37.9544C135.113 37.8159 135.665 37.8159 136.216 38.093C136.768 38.37 137.044 38.7856 137.319 39.3396C137.457 39.8937 137.457 40.4478 137.182 41.0019C137.182 41.0019 137.044 41.2789 136.906 41.6945C136.63 42.11 136.354 42.5256 135.941 43.2182C135.527 43.7723 134.976 44.4649 134.424 45.296C133.735 46.1271 133.045 46.8197 132.356 47.6508C130.15 49.8672 127.944 51.5294 125.462 52.6376C122.843 53.7457 120.223 54.2998 117.604 54.2998ZM122.291 28.8121C122.154 28.8121 122.016 28.8121 121.878 28.9506C121.188 29.0892 120.223 29.3662 119.12 29.9203C117.88 30.4744 116.777 31.444 115.536 32.6907C114.295 33.9374 113.192 35.4611 112.365 36.9848C111.538 38.5085 110.848 40.1708 110.435 41.9715C112.64 41.6945 114.571 41.0019 116.501 39.8937C118.293 38.7856 119.948 37.2618 121.188 35.3226C122.154 33.9374 122.705 32.6907 122.981 31.5825C123.257 30.4744 123.257 29.6432 123.119 29.0892C123.119 28.9506 122.843 28.8121 122.291 28.8121Z" fill="black"/>
<path d="M157.449 54.4383C155.932 54.4383 154.829 54.1613 154.002 53.4687C153.175 52.9146 152.485 52.222 152.209 51.6679C151.106 49.8672 150.555 47.3738 150.831 43.9108C151.106 40.5863 151.934 36.1537 153.588 30.7514C154.278 28.5351 155.105 26.1802 155.932 23.8254C156.759 21.4706 157.586 19.2543 158.551 17.0379C159.379 14.8216 160.344 12.7438 161.171 10.666C161.998 8.58822 162.825 6.78746 163.515 5.12522C163.791 4.57114 164.204 4.15558 164.756 4.01706C165.307 3.74002 165.859 3.74002 166.41 4.01706C166.962 4.2941 167.375 4.70966 167.513 5.26374C167.789 5.81782 167.651 6.3719 167.513 6.92598C163.101 17.1765 159.792 25.6262 157.862 32.1366C156.483 36.5692 155.656 40.3093 155.38 43.2182C155.105 45.1575 155.105 46.6812 155.243 47.5123C155.38 48.3434 155.656 49.036 155.932 49.3131C156.07 49.4516 156.208 49.7286 156.483 49.8672C156.759 50.0057 157.173 50.1442 157.724 50.1442C158.551 50.1442 159.654 49.7286 160.757 48.759C161.998 47.7894 163.239 46.5427 164.618 44.8804C165.169 44.1878 165.721 43.4952 166.134 42.8026C166.548 42.11 167.099 41.556 167.375 41.0019C167.789 40.4478 168.065 39.8937 168.478 39.0626C168.754 38.5085 169.168 38.2315 169.719 38.093C170.271 37.9544 170.822 37.9544 171.373 38.37C171.925 38.647 172.201 39.0626 172.476 39.6167C172.614 40.1708 172.614 40.7248 172.201 41.2789C172.201 41.2789 172.063 41.556 171.925 41.833C171.649 42.2486 171.373 42.6641 170.96 43.2182C170.546 43.7723 170.133 44.4649 169.581 45.296C169.03 45.9886 168.478 46.8197 167.789 47.5123C166.272 49.4516 164.756 50.8368 163.377 51.945C161.309 53.7457 159.241 54.4383 157.449 54.4383Z" fill="black"/>
<path d="M174.407 54.4383C172.89 54.4383 171.787 54.1613 170.96 53.4687C170.133 52.9146 169.443 52.222 169.168 51.6679C168.065 49.8672 167.513 47.3738 167.789 43.9108C168.065 40.5863 168.892 36.1537 170.546 30.7514C171.236 28.5351 172.063 26.1802 172.89 23.8254C173.717 21.4706 174.545 19.2543 175.51 17.0379C176.337 14.8216 177.302 12.7438 178.129 10.666C178.956 8.58822 179.784 6.78746 180.473 5.12522C180.749 4.57114 181.162 4.15558 181.714 4.01706C182.265 3.74002 182.817 3.74002 183.368 4.01706C183.92 4.2941 184.333 4.70966 184.471 5.26374C184.747 5.81782 184.609 6.3719 184.471 6.92598C180.059 17.1765 176.75 25.6262 174.82 32.1366C173.442 36.5692 172.614 40.3093 172.339 43.2182C172.063 45.1575 172.063 46.6812 172.201 47.5123C172.339 48.3434 172.614 49.036 172.89 49.3131C173.028 49.4516 173.166 49.7286 173.442 49.8672C173.717 50.0057 174.131 50.1442 174.682 50.1442C175.51 50.1442 176.613 49.7286 177.716 48.759C178.956 47.7894 180.197 46.5427 181.576 44.8804C182.127 44.1878 182.679 43.4952 183.093 42.8026C183.506 42.11 184.058 41.556 184.333 41.0019C184.747 40.4478 185.023 39.8937 185.436 39.0626C185.712 38.5085 186.126 38.2315 186.677 38.093C187.229 37.9544 187.78 37.9544 188.332 38.37C188.883 38.647 189.159 39.0626 189.435 39.6167C189.572 40.1708 189.572 40.7248 189.159 41.2789C189.159 41.2789 189.021 41.556 188.883 41.833C188.607 42.2486 188.332 42.6641 187.918 43.2182C187.504 43.7723 187.091 44.4649 186.539 45.296C185.988 45.9886 185.436 46.8197 184.747 47.5123C183.23 49.4516 181.714 50.8368 180.335 51.945C178.267 53.7457 176.337 54.4383 174.407 54.4383Z" fill="black"/>
<path d="M208.323 54.4383C206.255 54.4383 204.738 53.7457 203.635 52.222C202.67 50.9753 202.119 49.1746 201.843 46.9582C201.154 47.7894 200.602 48.482 199.913 49.1746C199.223 49.8672 198.534 50.5598 197.845 51.1138C196.19 52.499 194.536 53.4687 192.881 53.8842C191.089 54.4383 189.572 54.4383 188.056 54.0228C187.091 53.6072 186.264 53.0531 185.436 52.222C184.747 51.3909 184.195 50.4212 183.92 49.3131C183.368 47.2353 183.506 44.6034 184.333 41.556C185.023 39.2011 185.988 36.8463 187.366 34.7685C188.745 32.6907 190.262 30.7514 192.054 29.0892C193.846 27.5655 195.501 26.3188 197.293 25.6262C199.086 24.9336 200.602 24.6565 201.981 25.0721C202.257 25.2106 202.67 25.3491 203.084 25.6262C203.497 25.9032 204.049 26.3188 204.462 26.8729C204.876 27.4269 205.152 28.1195 205.428 29.0892C205.565 30.0588 205.565 31.3055 205.152 32.8292C205.014 33.3833 204.738 33.7989 204.187 34.2144C203.635 34.4915 203.084 34.63 202.532 34.4914C201.981 34.3529 201.567 34.0759 201.154 33.5218C200.878 32.9677 200.74 32.4137 200.878 31.8596C201.016 31.0285 201.016 30.4744 201.016 30.1973C201.016 29.7818 201.016 29.6433 200.878 29.5047C200.74 29.3662 200.74 29.2277 200.602 29.2277C200.188 29.0892 199.499 29.2277 198.396 29.6433C197.293 30.0588 196.052 30.8899 194.674 32.2751C193.157 33.6603 191.916 35.3226 190.813 37.1233C189.71 38.9241 188.883 40.8634 188.332 42.8026C187.78 44.7419 187.642 46.2656 187.78 47.6508C187.918 49.036 188.469 49.7286 189.297 50.0057C189.848 50.1442 190.537 50.1442 191.503 49.8672C192.468 49.5901 193.571 48.8975 194.949 47.9279C196.052 46.9582 197.293 45.573 198.81 43.7723C200.326 41.833 201.843 39.2011 203.36 35.7381C203.635 35.184 203.911 34.7685 204.462 34.63C205.014 34.3529 205.428 34.3529 205.979 34.63C206.531 34.907 206.944 35.184 207.22 35.7381C207.496 36.1537 207.496 36.7078 207.358 37.2618C206.393 40.8634 205.979 43.6338 205.979 45.7116C205.979 47.7894 206.255 49.036 206.806 49.7286C206.944 49.8672 207.082 50.0057 207.22 50.1442C207.358 50.2827 207.633 50.2827 208.047 50.2827C208.874 50.2827 209.977 49.8672 211.218 48.8975C212.459 47.9279 213.7 46.6812 215.079 45.019C216.319 43.6338 217.284 42.2486 217.974 41.1404C218.663 39.8937 219.077 39.3396 219.077 39.3396C219.353 38.7856 219.766 38.5085 220.318 38.37C220.869 38.2315 221.421 38.2315 221.972 38.647C222.524 38.9241 222.799 39.4782 222.937 40.0322C223.075 40.5863 223.075 41.1404 222.661 41.6945C222.661 41.6945 222.524 41.9715 222.248 42.2486C221.972 42.6641 221.696 43.0797 221.283 43.6338C220.869 44.1878 220.455 44.8804 219.904 45.7116C219.353 46.4042 218.801 47.2353 218.112 47.9279C217.284 48.8975 216.595 49.7286 215.768 50.5598C214.941 51.2524 214.251 51.945 213.562 52.499C212.183 53.7457 210.115 54.4383 208.323 54.4383Z" fill="black"/>
<path d="M217.284 54.5768C217.009 54.5768 216.733 54.4383 216.457 54.2998C215.906 54.0227 215.492 53.7457 215.354 53.1916C215.079 52.7761 215.079 52.222 215.216 51.6679C215.216 51.6679 215.492 50.8368 215.906 49.4516C216.319 48.0664 217.009 46.1271 217.836 43.7723C218.663 41.4174 219.49 38.7856 220.593 35.5996C221.696 32.5522 222.799 29.2277 224.04 25.9032C224.178 25.3491 224.592 24.9336 225.143 24.6565C225.695 24.3795 226.246 24.3795 226.798 24.518C227.349 24.795 227.763 25.2106 228.038 25.6262C228.314 26.1802 228.314 26.7343 228.038 27.2884L225.419 34.907C226.246 33.7988 227.073 32.6907 227.763 31.721C228.59 30.7514 229.279 29.9203 229.969 29.0892C231.485 27.5654 232.726 26.3188 233.967 25.4876C235.208 24.6565 236.311 24.3795 237.414 24.3795C237.965 24.3795 238.517 24.518 238.93 24.795C239.344 25.0721 239.757 25.3491 240.171 25.9032C240.447 26.1802 240.585 26.7343 240.86 27.2884C240.998 27.8425 241.136 28.6736 241.274 29.6432C241.412 30.6129 241.274 31.9981 241.274 33.5218C241.136 35.0455 240.86 36.9848 240.447 39.3396L241.136 38.37C242.377 36.4307 243.618 34.7685 244.721 33.2448C245.824 31.721 246.927 30.4744 247.892 29.3662C249.408 27.8425 250.649 26.5958 251.89 25.7647C253.131 24.9336 254.234 24.6565 255.337 24.6565C256.164 24.6565 256.853 24.795 257.405 25.0721C257.956 25.3491 258.37 25.7647 258.646 26.0417C259.473 27.1499 259.749 28.5351 259.473 30.3358C259.197 32.1366 258.784 34.4914 257.956 37.2618L257.267 40.1708C256.991 41.556 256.578 42.8026 256.44 43.9108C256.164 45.019 256.026 45.9886 255.888 46.8197C255.75 47.9279 255.75 48.6205 255.888 49.036C256.026 49.4516 256.026 49.7286 256.164 49.7286C256.302 49.8672 256.44 49.8671 256.716 50.0057C256.991 50.0057 257.129 50.1442 257.405 50.1442C258.232 50.1442 259.335 49.7286 260.438 48.759C261.679 47.9279 262.92 46.5427 264.298 44.8804C264.85 44.1878 265.401 43.4952 265.815 42.8026C266.229 42.11 266.642 41.556 267.056 41.0019C267.469 40.3093 267.883 39.7552 268.159 39.2011C268.435 38.647 268.848 38.37 269.4 38.093C269.951 37.9544 270.503 37.9544 271.054 38.2315C271.606 38.5085 271.881 38.9241 272.157 39.4782C272.295 40.0322 272.295 40.5863 272.019 41.1404C272.019 41.1404 271.881 41.4174 271.606 41.6945C271.33 42.11 271.054 42.5256 270.64 43.0797C270.227 43.6338 269.813 44.3264 269.262 45.1575C268.71 45.8501 268.159 46.6812 267.469 47.3738C265.953 49.1746 264.436 50.6983 263.058 51.945C260.99 53.4687 259.059 54.2998 257.267 54.2998C255.199 54.2998 253.682 53.6072 252.717 52.3605C252.166 51.6679 251.89 50.8368 251.614 49.8672C251.476 48.8975 251.476 47.9279 251.476 46.8197C251.614 45.7116 251.752 44.4649 252.028 43.2182C252.304 41.9715 252.579 40.5863 252.993 39.2011L253.682 36.2922C253.958 35.184 254.096 34.2144 254.372 33.3833C254.647 32.5522 254.785 31.721 254.923 31.0284C255.061 30.4744 255.061 30.0588 255.061 29.7818C255.061 29.5047 255.061 29.2277 255.061 29.0892C254.923 29.0892 254.51 29.3662 254.096 29.6432C253.682 29.9203 252.993 30.4744 252.166 31.3055C251.339 32.1366 250.236 33.3833 249.133 34.907C247.892 36.4307 246.513 38.37 244.721 41.0019C243.756 42.5256 242.791 44.0493 241.825 45.573C240.86 47.0968 240.033 48.3434 239.482 49.5901C238.792 50.8368 238.103 52.0835 237.276 53.6072C237 54.1613 236.586 54.4383 236.173 54.7153C235.621 54.8539 235.07 54.8539 234.656 54.5768C234.105 54.2998 233.691 54.0227 233.553 53.4687C233.277 52.9146 233.277 52.499 233.415 51.945C233.553 51.6679 233.691 51.1138 233.829 50.4212C233.967 49.5901 234.243 48.759 234.518 47.6508C234.794 46.5427 235.07 45.4345 235.346 44.1878C235.621 42.9412 235.897 41.556 236.173 40.1708C236.449 38.37 236.724 36.9848 236.862 35.7381C237 34.4914 237.138 33.5218 237.138 32.6907C237.138 31.8596 237.138 31.167 237.138 30.6129C237.138 30.0588 237.138 29.7818 237 29.5047C236.724 29.6432 236.311 29.9203 235.759 30.3358C235.208 30.7514 234.518 31.3055 233.691 32.2751C232.864 33.1062 231.899 34.3529 230.796 35.7381C229.693 37.1233 228.314 39.0626 226.935 41.2789C225.97 42.8026 225.005 44.3264 224.04 45.8501C223.075 47.3738 222.248 48.6205 221.696 49.8672C221.007 51.1138 220.318 52.3605 219.49 53.8842C219.353 54.2998 219.077 54.5768 218.663 54.7153C217.974 54.4383 217.698 54.5768 217.284 54.5768Z" fill="black"/>
<path d="M275.88 54.4383C273.949 54.4383 272.571 54.1613 271.33 53.4687C270.227 52.9146 269.4 52.222 268.848 51.5294C267.469 49.8671 266.78 47.7893 266.78 45.1575C266.78 43.6338 267.056 41.833 267.607 40.0322C268.159 38.2315 268.848 36.5692 269.813 34.907C270.641 33.3833 271.743 32.1366 272.846 31.167C273.812 30.3358 274.777 29.7818 275.604 29.6432C275.742 29.2277 276.017 28.8121 276.155 28.6736C277.948 25.7647 280.154 24.3795 282.773 24.3795C285.117 24.3795 287.047 25.6262 288.426 28.258C289.391 30.3358 289.805 32.6907 289.805 35.5996C289.805 38.647 289.253 41.556 288.288 44.1878C290.218 43.6338 292.01 42.8026 293.665 41.6945C294.768 40.8634 295.733 40.1708 296.422 39.6167C297.112 38.9241 297.387 38.647 297.387 38.647C297.801 38.2315 298.215 37.9544 298.904 37.9544C299.456 37.9544 300.007 38.093 300.421 38.5085C300.834 38.9241 301.11 39.3396 301.11 40.0322C301.11 40.5863 300.972 41.1404 300.558 41.556C300.421 41.6945 300.007 42.11 299.318 42.8026C298.628 43.4952 297.525 44.3263 296.284 45.1575C295.044 45.9886 293.389 46.8197 291.735 47.6508C289.942 48.482 288.012 48.8975 285.806 49.036C284.703 50.4212 283.462 51.6679 282.222 52.6375C280.291 53.8842 278.223 54.4383 275.88 54.4383ZM273.536 37.4004C272.846 38.647 272.295 40.0322 271.743 41.4174C271.33 42.8026 271.054 44.0493 271.054 45.296C271.054 45.8501 271.192 46.4042 271.33 47.0968C271.468 47.7894 271.743 48.3434 272.157 48.8975C272.984 49.7286 274.225 50.1442 275.88 50.1442C277.672 50.1442 279.188 49.5901 280.567 48.3434C279.051 47.6508 277.534 46.5427 276.431 45.019C275.604 43.9108 275.052 42.6641 274.639 41.2789C274.225 39.8937 274.087 38.37 274.087 36.8463V36.2922L273.536 37.4004ZM279.051 32.9677C278.913 33.5218 278.637 34.2144 278.637 34.907C278.499 35.5996 278.499 36.2922 278.499 37.1233C278.499 39.3396 279.051 41.2789 280.016 42.6641C280.843 43.7723 281.946 44.6034 283.6 44.8804C284.29 43.6338 284.841 42.11 285.117 40.5863C285.393 39.0626 285.668 37.4004 285.668 35.8766C285.668 33.9374 285.393 32.2751 284.979 31.0284C284.565 29.7818 283.876 29.0892 283.049 29.0892C282.36 29.0892 281.808 29.3662 281.119 29.9203C280.567 30.4744 280.016 31.3055 279.602 32.2751C279.326 32.2751 279.188 32.5522 279.051 32.9677Z" fill="black"/>
<path d="M345.642 72.7229C340.817 72.5844 336.129 71.7533 331.717 70.091C327.305 68.4288 323.583 65.6584 320.55 61.9184C318.206 58.8709 316.689 55.4079 316 51.5294C315.586 49.036 315.449 46.4041 315.724 43.7723C315.035 44.1878 314.621 44.4649 314.621 44.6034C314.621 45.296 314.483 45.7115 314.07 46.1271C313.656 46.5427 313.105 46.6812 312.553 46.6812C312.002 46.6812 311.45 46.5427 311.037 46.1271C310.623 45.7115 310.347 45.1575 310.347 44.6034C310.347 44.0493 310.485 43.3567 310.899 42.5256C311.175 41.6945 311.864 41.0019 312.967 40.3093C313.38 40.0322 313.932 39.7552 314.621 39.4782C315.173 39.2011 315.862 38.9241 316.689 38.7856C318.206 32.9677 320.412 27.5654 323.307 22.5787C326.202 17.4535 329.649 13.1594 333.785 9.41933C335.578 7.75709 337.37 6.23338 339.162 4.9867C340.955 3.74002 342.885 2.77038 344.677 1.93926C348.4 0.27702 351.846 -0.27706 354.742 0.41554C357.913 1.10814 359.981 3.04742 361.084 5.95634C362.187 8.86525 362.325 12.6053 361.497 17.0379C361.36 17.592 361.084 18.0076 360.532 18.4231C360.119 18.7002 359.567 18.8387 358.878 18.7002C358.326 18.5616 357.913 18.2846 357.499 17.7305C357.223 17.1764 357.086 16.6224 357.223 16.0683C357.361 15.0987 357.637 13.9905 357.637 12.7438C357.775 11.4971 357.775 10.389 357.499 9.14229C357.361 8.03413 356.948 7.0645 356.396 6.09486C355.845 5.12522 354.88 4.70966 353.777 4.2941C351.709 3.87854 349.227 4.2941 346.332 5.54078C343.023 6.92598 339.852 9.14229 336.681 12.1897C333.234 15.5142 330.201 19.2542 327.581 23.5484C324.962 27.8425 322.894 32.4136 321.377 37.4004C322.618 37.1233 323.997 36.9848 325.375 36.8463C326.754 36.7078 328.133 36.5692 329.511 36.4307C330.752 36.2922 331.993 36.1537 333.096 36.0152C334.199 35.8766 335.164 35.7381 336.129 35.5996C337.094 35.4611 337.784 35.3226 338.197 35.184C338.611 35.0455 339.024 34.907 339.162 34.907C339.438 33.9374 340.127 33.5218 341.23 33.5218C341.782 33.5218 342.333 33.7988 342.747 34.2144C343.161 34.63 343.436 35.184 343.436 35.7381C343.436 36.1537 343.298 36.5692 343.023 37.1233C342.747 37.6774 342.195 38.2315 341.23 38.647C340.541 39.0626 339.576 39.3396 338.197 39.6167C337.094 39.8937 335.853 40.0322 334.475 40.1708C333.096 40.3093 331.579 40.4478 330.063 40.5863C328.408 40.7248 326.754 41.0019 324.962 41.1404C323.307 41.4174 321.791 41.556 320.274 41.833C319.723 45.1575 319.723 48.2049 320.412 50.9753C320.963 53.8842 322.204 56.3776 323.997 58.7324C326.34 61.6413 329.373 63.9962 333.096 65.5199C336.819 67.0436 341.093 67.8747 345.78 67.8747C354.88 67.8747 362.876 67.4592 369.632 66.4895C376.525 65.5199 382.178 64.5503 386.452 63.5806C388.796 63.0265 390.864 62.4725 392.656 62.0569C394.448 61.5028 395.965 61.0873 397.206 60.6717C398.723 60.2561 399.963 59.7021 401.066 59.2865C401.618 59.0095 402.169 59.0095 402.721 59.2865C403.272 59.5635 403.686 59.8406 403.962 60.5332C404.237 61.0873 404.237 61.6413 403.962 62.1954C403.686 62.7495 403.272 63.1651 402.859 63.4421C402.721 63.4421 401.48 63.9962 398.86 64.9658C396.241 65.9355 392.518 66.9051 387.693 68.0133C380.524 69.6755 373.492 70.7836 366.461 71.4762C359.429 72.4459 352.536 72.7229 345.642 72.7229Z" fill="black"/>
<path d="M357.086 54.5768C356.81 54.5768 356.534 54.4383 356.258 54.2998C355.707 54.0227 355.293 53.7457 355.155 53.1916C354.88 52.7761 354.88 52.222 355.017 51.6679C355.017 51.6679 355.293 50.8368 355.707 49.4516C356.12 48.0664 356.81 46.1271 357.637 43.7723C358.464 41.4174 359.291 38.7856 360.394 35.5996C361.497 32.5522 362.6 29.2277 363.841 25.9032C363.979 25.3491 364.393 24.9336 364.944 24.6565C365.496 24.3795 366.047 24.3795 366.599 24.518C367.15 24.795 367.564 25.2106 367.839 25.6262C368.115 26.1802 368.115 26.7343 367.839 27.2884L365.22 34.907C366.047 33.7988 366.874 32.6907 367.564 31.721C368.391 30.7514 369.08 29.9203 369.77 29.0892C371.286 27.5654 372.527 26.3188 373.768 25.4876C375.009 24.6565 376.112 24.3795 377.215 24.3795C377.766 24.3795 378.318 24.518 378.731 24.795C379.145 25.0721 379.558 25.3491 379.972 25.9032C380.248 26.1802 380.386 26.7343 380.661 27.2884C380.799 27.8425 380.937 28.6736 381.075 29.6432C381.213 30.6129 381.075 31.9981 381.075 33.5218C380.937 35.0455 380.661 36.9848 380.248 39.3396L380.937 38.37C382.178 36.4307 383.419 34.7685 384.522 33.2448C385.625 31.721 386.728 30.4744 387.693 29.3662C389.209 27.8425 390.45 26.5958 391.691 25.7647C392.932 24.9336 394.035 24.6565 395.138 24.6565C395.965 24.6565 396.654 24.795 397.206 25.0721C397.757 25.3491 398.171 25.7647 398.447 26.0417C399.274 27.1499 399.55 28.5351 399.274 30.3358C398.998 32.1366 398.585 34.4914 397.757 37.2618L397.068 40.1708C396.792 41.556 396.379 42.8026 396.241 43.9108C395.965 45.019 395.827 45.9886 395.689 46.8197C395.552 47.9279 395.552 48.6205 395.689 49.036C395.827 49.4516 395.827 49.7286 395.965 49.7286C396.103 49.8672 396.241 49.8671 396.517 50.0057C396.792 50.0057 396.93 50.1442 397.206 50.1442C398.033 50.1442 399.136 49.7286 400.239 48.759C401.48 47.9279 402.721 46.5427 404.1 44.8804C404.651 44.1878 405.202 43.4952 405.616 42.8026C406.03 42.11 406.443 41.556 406.857 41.0019C407.271 40.3093 407.684 39.7552 407.96 39.2011C408.236 38.647 408.649 38.37 409.201 38.093C409.752 37.9544 410.304 37.9544 410.855 38.2315C411.407 38.5085 411.682 38.9241 411.958 39.4782C412.096 40.0322 412.096 40.5863 411.82 41.1404C411.82 41.1404 411.682 41.4174 411.407 41.6945C411.131 42.11 410.855 42.5256 410.442 43.0797C410.028 43.6338 409.614 44.3264 409.063 45.1575C408.511 45.8501 407.96 46.6812 407.271 47.3738C405.754 49.1746 404.237 50.6983 402.859 51.945C400.791 53.4687 398.86 54.2998 397.068 54.2998C395 54.2998 393.483 53.6072 392.518 52.3605C391.967 51.6679 391.691 50.8368 391.415 49.8672C391.278 48.8975 391.277 47.9279 391.277 46.8197C391.415 45.7116 391.553 44.4649 391.829 43.2182C392.105 41.9715 392.38 40.5863 392.794 39.2011L393.483 36.2922C393.759 35.184 393.897 34.2144 394.173 33.3833C394.449 32.5522 394.586 31.721 394.724 31.0284C394.862 30.4744 394.862 30.0588 394.862 29.7818C394.862 29.5047 394.862 29.2277 394.862 29.0892C394.724 29.0892 394.311 29.3662 393.897 29.6432C393.483 29.9203 392.794 30.4744 391.967 31.3055C391.14 32.1366 390.037 33.3833 388.934 34.907C387.693 36.4307 386.314 38.37 384.522 41.0019C383.557 42.5256 382.592 44.0493 381.627 45.573C380.661 47.0968 379.834 48.3434 379.283 49.5901C378.593 50.8368 377.904 52.0835 377.077 53.6072C376.801 54.1613 376.387 54.4383 375.974 54.7153C375.422 54.8539 374.871 54.8539 374.457 54.5768C373.906 54.2998 373.492 54.0227 373.354 53.4687C373.079 52.9146 373.079 52.499 373.216 51.945C373.354 51.6679 373.492 51.1138 373.63 50.4212C373.768 49.5901 374.044 48.759 374.319 47.6508C374.595 46.5427 374.871 45.4345 375.147 44.1878C375.422 42.9412 375.698 41.556 375.974 40.1708C376.25 38.37 376.525 36.9848 376.663 35.7381C376.801 34.4914 376.939 33.5218 376.939 32.6907C376.939 31.8596 376.939 31.167 376.939 30.6129C376.939 30.0588 376.939 29.7818 376.801 29.5047C376.525 29.6432 376.112 29.9203 375.56 30.3358C375.009 30.7514 374.319 31.3055 373.492 32.2751C372.665 33.1062 371.7 34.3529 370.597 35.7381C369.494 37.1233 368.115 39.0626 366.736 41.2789C365.771 42.8026 364.806 44.3264 363.841 45.8501C362.876 47.3738 362.049 48.6205 361.497 49.8672C360.808 51.1138 360.119 52.3605 359.291 53.8842C359.154 54.2998 358.878 54.5768 358.464 54.7153C357.775 54.4383 357.499 54.5768 357.086 54.5768Z" fill="black"/>
<path d="M418.714 54.2998C414.302 54.2998 411.131 53.0531 409.063 50.5598C408.374 49.7286 407.822 48.759 407.408 47.2353C406.995 45.8501 406.857 43.9108 407.271 41.6945C407.684 39.4782 408.511 37.4004 409.476 35.3226C410.579 33.2448 411.82 31.444 413.475 29.7818C414.853 28.3966 416.37 27.1499 418.024 26.1802C419.679 25.2106 421.195 24.795 422.574 24.6565C423.815 24.518 425.056 24.6565 426.021 25.2106C426.986 25.7647 427.675 26.4573 428.227 27.5654C428.778 28.9506 428.778 30.4744 428.365 32.4136C427.951 34.2144 427.124 36.1537 425.883 37.9544C425.056 39.2011 424.091 40.3093 422.988 41.2789C421.885 42.2486 420.782 43.2182 419.541 43.9108C417.197 45.296 414.578 46.2656 411.682 46.4042C412.372 47.7894 413.337 48.759 414.578 49.1746C415.956 49.5901 417.335 49.8672 418.714 49.8672C422.85 49.8672 426.71 48.0664 430.157 44.6034C430.846 43.9108 431.398 43.2182 431.949 42.6641C432.501 41.9715 432.914 41.4174 433.328 40.8634C433.742 40.3093 434.155 39.7552 434.431 39.0626C434.707 38.5085 435.12 38.2315 435.672 37.9544C436.223 37.8159 436.775 37.8159 437.326 38.093C437.878 38.37 438.154 38.7856 438.429 39.3396C438.567 39.8937 438.567 40.4478 438.291 41.0019C438.291 41.0019 438.154 41.2789 438.016 41.6945C437.74 42.11 437.464 42.5256 437.051 43.2182C436.637 43.7723 436.086 44.4649 435.534 45.296C434.845 46.1271 434.155 46.8197 433.466 47.6508C431.26 49.8672 429.054 51.5294 426.572 52.6376C423.815 53.7457 421.333 54.2998 418.714 54.2998ZM423.401 28.8121C423.264 28.8121 423.126 28.8121 422.988 28.9506C422.298 29.0892 421.333 29.3662 420.23 29.9203C418.99 30.4744 417.887 31.444 416.646 32.6907C415.405 33.9374 414.302 35.4611 413.475 36.9848C412.647 38.5085 411.958 40.1708 411.545 41.9715C413.75 41.6945 415.681 41.0019 417.611 39.8937C419.403 38.7856 421.058 37.2618 422.298 35.3226C423.264 33.9374 423.815 32.6907 424.091 31.5825C424.367 30.4744 424.367 29.6432 424.229 29.0892C424.091 28.9506 423.815 28.8121 423.401 28.8121Z" fill="black"/>
<path d="M440.497 54.4383C438.981 54.4383 437.878 54.1613 437.051 53.4687C436.223 52.9146 435.534 52.222 435.258 51.6679C434.155 49.8672 433.604 47.3738 433.88 43.9108C434.155 40.5863 434.983 36.1537 436.637 30.7514C437.326 28.5351 438.154 26.1802 438.981 23.8254C439.808 21.4706 440.635 19.2543 441.6 17.0379C442.428 14.8216 443.393 12.7438 444.22 10.666C445.047 8.58822 445.874 6.78746 446.564 5.12522C446.839 4.57114 447.253 4.15558 447.805 4.01706C448.356 3.74002 448.908 3.74002 449.459 4.01706C450.01 4.2941 450.424 4.70966 450.562 5.26374C450.838 5.81782 450.7 6.3719 450.562 6.92598C446.15 17.1765 442.841 25.6262 440.911 32.1366C439.532 36.5692 438.705 40.3093 438.429 43.2182C438.154 45.1575 438.154 46.6812 438.291 47.5123C438.429 48.3434 438.705 49.036 438.981 49.3131C439.119 49.4516 439.257 49.7286 439.532 49.8672C439.808 50.0057 440.222 50.1442 440.773 50.1442C441.6 50.1442 442.703 49.7286 443.806 48.759C445.047 47.7894 446.288 46.5427 447.667 44.8804C448.218 44.1878 448.77 43.4952 449.183 42.8026C449.597 42.11 450.148 41.556 450.424 41.0019C450.838 40.4478 451.113 39.8937 451.527 39.0626C451.803 38.5085 452.216 38.2315 452.768 38.093C453.319 37.9544 453.871 37.9544 454.422 38.37C454.974 38.647 455.25 39.0626 455.525 39.6167C455.663 40.1708 455.663 40.7248 455.25 41.2789C455.25 41.2789 455.112 41.556 454.974 41.833C454.698 42.2486 454.422 42.6641 454.009 43.2182C453.595 43.7723 453.182 44.4649 452.63 45.296C452.079 45.9886 451.527 46.8197 450.838 47.5123C449.321 49.4516 447.805 50.8368 446.426 51.945C444.358 53.7457 442.428 54.4383 440.497 54.4383Z" fill="black"/>
<path d="M472.346 24.7951C473.035 24.9336 473.449 25.2106 473.724 25.7647C474 26.3188 474.138 26.8729 474 27.4269C474 27.4269 473.862 28.1195 473.586 29.3662C473.311 30.6129 473.035 32.2751 472.483 34.3529C472.07 36.4307 471.518 38.7856 470.829 41.4174C470.14 44.0493 469.45 46.6812 468.623 49.4516C467.658 52.6376 466.693 55.5465 465.728 58.1784C464.763 60.6717 463.798 62.888 462.695 64.8273C459.937 70.0911 456.904 72.723 453.733 72.723C453.182 72.723 452.63 72.4459 452.216 72.0304C451.803 71.6148 451.527 71.0607 451.527 70.5066C451.527 69.814 451.803 69.3985 452.216 68.9829C452.63 68.5674 453.182 68.4288 453.733 68.4288C454.147 68.4288 454.56 68.2903 454.836 68.0133C455.25 67.7362 455.525 67.4592 455.801 67.1822C456.766 66.074 457.731 64.5503 458.696 62.7495C460.213 59.9791 461.73 56.2391 463.108 51.8064C461.04 53.7457 458.972 54.5768 457.042 54.5768C455.663 54.5768 454.56 54.2998 453.733 53.7457C452.906 53.1916 452.216 52.6376 451.803 52.0835C450.286 49.8672 449.873 46.1271 450.7 41.0019C451.389 37.1233 452.63 32.1366 454.698 26.1803C454.974 25.6262 455.387 25.2106 455.801 24.9336C456.353 24.6565 456.904 24.6565 457.456 24.7951C458.007 25.0721 458.421 25.4877 458.696 25.9032C458.972 26.4573 458.972 27.0114 458.834 27.5655C457.456 31.5825 456.49 35.0455 455.801 37.6774C455.112 40.3093 454.836 42.5256 454.698 44.1878C454.56 45.8501 454.56 47.0968 454.836 47.9279C454.974 48.759 455.25 49.3131 455.525 49.5901C455.663 49.7286 455.801 50.0057 456.077 50.1442C456.353 50.2827 456.766 50.4212 457.18 50.4212C458.007 50.4212 458.972 50.0057 460.075 49.036C461.178 48.2049 462.281 46.8197 463.384 45.296C463.798 44.6034 464.349 43.9108 464.763 43.2182C465.176 42.5256 465.452 41.9715 465.866 41.4174C466.141 40.7248 466.555 40.1708 466.831 39.6167L467.106 39.2011C467.52 37.4004 467.934 35.8767 468.209 34.3529C468.485 32.8292 468.761 31.5825 469.037 30.4744C469.312 29.3662 469.45 28.2581 469.726 26.8729C469.864 26.1803 470.14 25.7647 470.691 25.4877C471.243 24.9336 471.794 24.7951 472.346 24.7951Z" fill="black"/>
</svg>
