<svg width="17" height="17" viewBox="0 0 17 17" fill="none" xmlns="http://www.w3.org/2000/svg">
<path d="M12.8 0H3.6C1.6 0 0 1.6 0 3.6V12.8C0 14.8 1.6 16.4 3.6 16.4H12.8C14.8 16.4 16.4 14.8 16.4 12.8V3.6C16.4 1.6 14.8 0 12.8 0Z" fill="#C8414B"/>
<path d="M16.4 3.39999H0V13H16.4V3.39999Z" fill="#FFD250"/>
<path d="M7.19999 8.19999L7.49999 7.09999C7.49999 6.99999 7.39999 6.89999 7.29999 6.89999H7.09999C6.89999 6.89999 6.89999 6.99999 6.89999 7.09999L7.19999 8.19999Z" fill="#C8414B"/>
<path d="M7.4 7.70001H6.8V10.1H7.4V7.70001Z" fill="#F5F5F5"/>
<path d="M7.6 7.39999H6.7V7.69999H7.6V7.39999Z" fill="#FAB446"/>
<path d="M7.69999 8.19998H6.09999V8.49998H7.69999V8.19998Z" fill="#C8414B"/>
<path d="M7.6 9.39999L6.7 9.09999V8.79999L7.6 9.09999V9.39999Z" fill="#C8414B"/>
<path d="M2.5 8.19999L2.8 7.09999C2.8 6.99999 2.7 6.89999 2.6 6.89999H2.4C2.3 6.89999 2.2 6.99999 2.2 7.09999L2.5 8.19999Z" fill="#C8414B"/>
<path d="M3.6 7.39999C3.4 7.39999 3.3 7.49999 3.3 7.69999V9.49999C3.3 9.79999 3.7 10.5 4.9 10.5C6.1 10.5 6.5 9.89999 6.5 9.49999V7.69999C6.5 7.49999 6.4 7.39999 6.2 7.39999H3.6Z" fill="#F5F5F5"/>
<path d="M4.8 8.79999H3.2V7.69999C3.2 7.49999 3.3 7.39999 3.5 7.39999H4.8V8.79999Z" fill="#C8414B"/>
<path d="M4.8 8.79999H6.4V9.49999C6.4 9.89999 6.1 10.2 5.7 10.2H5.6C5.2 10.2 4.9 9.89999 4.9 9.49999L4.8 8.79999Z" fill="#C8414B"/>
<path d="M3.2 8.79999H4.8V9.49999C4.8 9.89999 4.5 10.2 4.1 10.2H4C3.6 10.2 3.3 9.89999 3.3 9.49999L3.2 8.79999Z" fill="#FAB446"/>
<path d="M4.50001 10.1V8.79999H4.20001V10.2C4.30001 10.2 4.40001 10.1 4.50001 10.1Z" fill="#C8414B"/>
<path d="M3.90001 10.2V8.79999H3.60001V10.1C3.70001 10.1 3.80001 10.2 3.90001 10.2Z" fill="#C8414B"/>
<path d="M4.50001 8.20001H3.60001V8.50001H4.50001V8.20001Z" fill="#FFB441"/>
<path d="M4.50001 7.70001H3.60001V8.00001H4.50001V7.70001Z" fill="#FAB446"/>
<path d="M4.30001 7.80002H3.70001V8.30002H4.30001V7.80002Z" fill="#FAB446"/>
<path d="M2.8 7.70001H2.2V10.1H2.8V7.70001Z" fill="#F5F5F5"/>
<path d="M2.9 9.89999H2V10.2H2.9V9.89999Z" fill="#FAB446"/>
<path d="M2.9 7.39999H2V7.69999H2.9V7.39999Z" fill="#FAB446"/>
<path d="M3 10.2H1.8V10.5H3V10.2Z" fill="#5064AA"/>
<path d="M7.7 9.89999H6.8V10.2H7.7V9.89999Z" fill="#FAB446"/>
<path d="M7.7 10.2H6.5V10.5H7.7V10.2Z" fill="#5064AA"/>
<path d="M5.79999 7.10001H3.89999V7.40001H5.79999V7.10001Z" fill="#FAB446"/>
<path d="M5 6.20001H4.7V7.00001H5V6.20001Z" fill="#FFB441"/>
<path d="M4.5 6.69999C4.2 6.69999 4 6.49999 4 6.19999C4 5.99999 4.2 5.79999 4.5 5.79999C4.8 5.79999 5 5.99999 5 6.19999C5 6.49999 4.8 6.69999 4.5 6.69999ZM4.5 6.09999C4.4 6.09999 4.3 6.19999 4.3 6.19999C4.3 6.19999 4.4 6.29999 4.5 6.29999C4.6 6.29999 4.7 6.19999 4.7 6.19999C4.7 6.19999 4.6 6.09999 4.5 6.09999Z" fill="#F5F5F5"/>
<path d="M5.09999 6.69999C4.79999 6.69999 4.59999 6.49999 4.59999 6.29999C4.59999 6.09999 4.79999 5.89999 5.09999 5.89999C5.39999 5.89999 5.59999 6.09999 5.59999 6.29999C5.59999 6.49999 5.39999 6.69999 5.09999 6.69999ZM5.09999 6.09999C4.99999 6.09999 4.99999 6.19999 4.99999 6.19999C4.99999 6.19999 4.99999 6.39999 5.09999 6.39999C5.19999 6.39999 5.29999 6.29999 5.29999 6.29999C5.29999 6.19999 5.19999 6.09999 5.09999 6.09999Z" fill="#F5F5F5"/>
<path d="M5.7 6.89998C5.4 6.89998 5.2 6.69998 5.2 6.49998C5.2 6.29998 5.4 6.09998 5.7 6.09998C6 6.09998 6.2 6.29998 6.2 6.49998C6.2 6.79998 6 6.89998 5.7 6.89998ZM5.7 6.39998C5.6 6.39998 5.5 6.49998 5.5 6.49998C5.5 6.59998 5.6 6.59998 5.7 6.59998C5.8 6.59998 5.9 6.49998 5.9 6.49998C5.9 6.39998 5.8 6.39998 5.7 6.39998Z" fill="#F5F5F5"/>
<path d="M3.89999 6.89998C3.59999 6.89998 3.39999 6.69998 3.39999 6.49998C3.39999 6.29998 3.59999 6.09998 3.89999 6.09998C4.19999 6.09998 4.39999 6.29998 4.39999 6.49998C4.29999 6.79998 4.09999 6.89998 3.89999 6.89998ZM3.89999 6.39998C3.79999 6.39998 3.69999 6.49998 3.69999 6.49998C3.69999 6.59998 3.79999 6.59998 3.89999 6.59998C3.99999 6.59998 3.99999 6.59998 3.99999 6.49998C3.99999 6.39998 3.99999 6.39998 3.89999 6.39998Z" fill="#F5F5F5"/>
<path d="M5.70001 9.40001V9.50001C5.70001 9.60001 5.60001 9.60001 5.50001 9.60001C5.40001 9.60001 5.30001 9.50001 5.30001 9.50001V9.40001H5.70001ZM6.10001 9.10001H5.10001V9.50001C5.10001 9.70001 5.30001 9.90001 5.60001 9.90001C5.90001 9.90001 6.10001 9.70001 6.10001 9.50001V9.10001Z" fill="#FAB446"/>
<path d="M5.6 8.50001C5.4 8.50001 5.3 8.40001 5.3 8.20001V8.00001C5.3 7.80001 5.4 7.70001 5.6 7.70001C5.8 7.70001 5.9 7.80001 5.9 8.00001V8.30001C5.9 8.40001 5.8 8.50001 5.6 8.50001Z" fill="#FFA0D2"/>
<path d="M4.8 9.19999C5.07615 9.19999 5.3 9.02091 5.3 8.79999C5.3 8.57908 5.07615 8.39999 4.8 8.39999C4.52386 8.39999 4.3 8.57908 4.3 8.79999C4.3 9.02091 4.52386 9.19999 4.8 9.19999Z" fill="#5064AA"/>
<path d="M5 5.70001H4.7V6.50001H5V5.70001Z" fill="#FAB446"/>
<path d="M3.90001 7.10001L3.60001 6.80001L3.80001 6.60001C4.00001 6.40001 4.40001 6.20001 4.80001 6.20001C5.20001 6.20001 5.60001 6.30001 5.90001 6.60001L6.10001 6.80001L5.70001 7.10001H3.90001Z" fill="#C8414B"/>
<path d="M4.80001 6.90001C4.91046 6.90001 5.00001 6.85524 5.00001 6.80001C5.00001 6.74478 4.91046 6.70001 4.80001 6.70001C4.68955 6.70001 4.60001 6.74478 4.60001 6.80001C4.60001 6.85524 4.68955 6.90001 4.80001 6.90001Z" fill="#FFD250"/>
<path d="M4.2 6.90001C4.31046 6.90001 4.4 6.85524 4.4 6.80001C4.4 6.74478 4.31046 6.70001 4.2 6.70001C4.08954 6.70001 4 6.74478 4 6.80001C4 6.85524 4.08954 6.90001 4.2 6.90001Z" fill="#FFD250"/>
<path d="M5.4 6.90001C5.51045 6.90001 5.6 6.85524 5.6 6.80001C5.6 6.74478 5.51045 6.70001 5.4 6.70001C5.28954 6.70001 5.2 6.74478 5.2 6.80001C5.2 6.85524 5.28954 6.90001 5.4 6.90001Z" fill="#FFD250"/>
<path d="M3.6 8.20001H2V8.50001H3.6V8.20001Z" fill="#C8414B"/>
<path d="M2 9.40002L2.9 9.10002V8.80002L2 9.10002V9.40002Z" fill="#C8414B"/>
</svg>
