<svg width="25" height="20" viewBox="0 0 25 20" fill="none" xmlns="http://www.w3.org/2000/svg">
<path d="M24.112 2.83856C23.259 3.26507 22.2639 3.40723 21.4108 3.5494C22.406 2.98073 23.1169 1.98555 23.5434 0.848198C22.5482 1.41687 21.553 1.84338 20.5578 1.98555C19.7048 0.990367 18.4253 0.421692 17.0036 0.421692C14.3024 0.421692 12.1699 2.55422 12.1699 5.25543C12.1699 5.68193 12.1699 5.96627 12.312 6.39278C8.33132 6.25061 4.77711 4.26025 2.50241 1.41687C1.93374 2.12772 1.79157 2.98073 1.79157 3.83374C1.79157 5.53976 2.64458 6.96145 3.9241 7.81446C3.21326 7.81446 2.36024 7.53013 1.79157 7.24579C1.79157 9.52049 3.49759 11.5108 5.63012 11.9374C5.20361 12.0795 4.77711 12.0795 4.3506 12.0795C4.06627 12.0795 3.78193 12.0795 3.49759 11.9374C4.06626 13.7855 5.91446 15.2072 7.90482 15.2072C6.1988 16.6289 4.20843 17.4819 1.93373 17.4819C1.50723 17.4819 1.22289 17.4819 0.796387 17.4819C2.92892 18.9036 5.48795 19.6145 8.18916 19.6145C17.0036 19.6145 21.8373 12.3639 21.8373 5.96627C21.8373 5.8241 21.8373 5.53976 21.8373 5.3976C22.6904 4.54458 23.5434 3.69157 24.112 2.83856Z" fill="#4F4F4F"/>
</svg>
